<?xml version="1.0" encoding="UTF-8"?> <svg xmlns="http://www.w3.org/2000/svg" width="276" height="100" viewBox="0 0 276 100" fill="none"><path d="M268.581 87.7746C268.581 87.4568 268.623 87.1391 268.706 86.8352C268.788 86.5313 268.913 86.255 269.065 85.9925C269.216 85.7301 269.396 85.4952 269.617 85.2742C269.838 85.067 270.072 84.8736 270.335 84.7217C270.597 84.5697 270.873 84.4454 271.177 84.3625C271.48 84.2796 271.784 84.2382 272.116 84.2382C272.447 84.2382 272.751 84.2796 273.054 84.3625C273.358 84.4454 273.634 84.5697 273.896 84.7217C274.159 84.8736 274.393 85.0532 274.614 85.2742C274.835 85.4952 275.015 85.7301 275.166 85.9925C275.318 86.255 275.443 86.5313 275.525 86.8352C275.608 87.1391 275.65 87.443 275.65 87.7746C275.65 88.1061 275.608 88.41 275.525 88.7001C275.443 89.004 275.318 89.2803 275.166 89.5428C275.015 89.8052 274.835 90.0401 274.614 90.2611C274.393 90.4683 274.159 90.6617 273.896 90.8137C273.634 90.9656 273.358 91.0899 273.054 91.1728C272.751 91.2557 272.447 91.2971 272.116 91.2971C271.784 91.2971 271.48 91.2557 271.177 91.1728C270.873 91.0899 270.597 90.9656 270.335 90.8137C270.072 90.6617 269.838 90.4821 269.617 90.2611C269.396 90.0401 269.216 89.8052 269.065 89.5428C268.913 89.2803 268.788 89.004 268.706 88.7001C268.623 88.3962 268.581 88.0923 268.581 87.7607M269.065 87.7746C269.065 88.0647 269.106 88.3409 269.175 88.6034C269.244 88.8659 269.341 89.1145 269.479 89.3494C269.617 89.5842 269.769 89.7914 269.948 89.971C270.128 90.1644 270.335 90.3164 270.556 90.4545C270.776 90.5926 271.025 90.6893 271.287 90.7584C271.549 90.8275 271.826 90.8689 272.102 90.8689C272.53 90.8689 272.916 90.786 273.289 90.6341C273.662 90.4683 273.979 90.2473 274.255 89.971C274.531 89.6947 274.752 89.3632 274.904 88.9902C275.07 88.6172 275.139 88.2166 275.139 87.7884C275.139 87.4983 275.097 87.222 275.028 86.9595C274.959 86.6971 274.849 86.4484 274.725 86.2136C274.587 85.9787 274.435 85.7715 274.255 85.5781C274.076 85.3847 273.869 85.2328 273.648 85.0946C273.427 84.9565 273.179 84.8598 272.916 84.7769C272.654 84.7078 272.378 84.6664 272.102 84.6664C271.674 84.6664 271.287 84.7493 270.914 84.9151C270.542 85.0808 270.224 85.3018 269.948 85.5781C269.672 85.8544 269.465 86.1859 269.299 86.5589C269.147 86.9319 269.065 87.3463 269.065 87.7746ZM271.398 88.2166V89.9157H270.652V85.6196H272.033C272.585 85.6196 272.999 85.7163 273.261 85.9235C273.524 86.1307 273.662 86.4208 273.662 86.8076C273.662 87.1115 273.579 87.374 273.399 87.5812C273.234 87.7884 272.971 87.9403 272.626 88.0232C272.682 88.0508 272.723 88.0923 272.764 88.1475C272.806 88.189 272.847 88.2581 272.875 88.3133L273.979 89.9157H273.261C273.151 89.9157 273.082 89.8743 273.027 89.7914L272.06 88.3409C272.06 88.3409 271.991 88.2719 271.95 88.2442C271.908 88.2166 271.853 88.2166 271.77 88.2166H271.384H271.398ZM271.398 87.664H271.95C272.129 87.664 272.281 87.6502 272.405 87.6088C272.53 87.5812 272.626 87.5259 272.709 87.4568C272.792 87.3878 272.833 87.3187 272.875 87.222C272.902 87.1253 272.93 87.0286 272.93 86.9043C272.93 86.7799 272.916 86.6832 272.889 86.5866C272.861 86.4899 272.806 86.4208 272.737 86.3655C272.668 86.3103 272.571 86.2688 272.461 86.2412C272.35 86.2136 272.212 86.1998 272.046 86.1998H271.411V87.664H271.398Z" fill="#00263E"></path><path d="M133.538 36.552C133.041 26.2743 124.137 20.5001 109.241 22.4064C86.5452 25.3212 90.4935 5.87098 97.8379 3.56403C104.34 1.51955 108.04 8.60616 104.685 11.3966C104.023 11.9492 103.65 11.2723 103.65 11.2723C103.65 11.2723 103.374 10.6092 102.573 10.8026C102.076 10.9269 101.772 11.4104 101.897 11.8801C102.325 13.4549 104.741 13.4411 106.176 12.557C110.221 10.0566 109.586 0 99.2322 0C85.3994 0 78.9937 16.6736 87.1526 27.5867C93.7378 36.3862 93.3236 48.1006 82.7902 51.0291C67.3835 55.3253 62.5102 38.1959 73.6649 33.8997C78.8971 31.8829 83.3424 35.9166 81.3406 39.9226C81.1335 40.3371 80.6642 40.9863 80.0705 40.9863C79.753 40.9863 79.5321 40.8896 79.4769 40.4752C79.2698 38.9971 75.6943 39.7983 76.9782 42.0638C77.9307 43.763 79.6426 44.4951 82.1551 43.4176C85.6203 41.9119 86.5728 37.7538 85.7583 35.0187C84.4744 30.7087 81.313 28.6642 76.0256 28.2636C65.8373 27.49 54.2961 41.0416 61.4058 53.3637C68.5569 65.7549 96.2503 65.6306 102.518 40.3785C106.59 23.9536 125.987 27.1032 126.58 36.8835C127.05 44.4951 120.672 45.393 119.181 42.1053C119.084 41.7185 119.319 41.3317 119.719 41.235C120.354 41.0692 120.589 41.608 120.589 41.608C120.589 41.608 120.907 42.0914 121.611 41.7737C122.011 41.5527 122.328 41.235 122.536 40.8067C122.853 40.1713 122.908 39.4806 122.715 38.7623C122.37 37.4499 121.528 36.4691 120.189 35.8199C118.85 35.1706 117.428 35.0187 115.909 35.3916C113.935 35.8613 112.582 36.8974 111.574 38.2926C110.318 40.0193 109.517 45.172 114.777 48.5288C123.516 54.1097 133.98 45.3101 133.552 36.552" fill="#00609C"></path><path d="M199.79 65.1747H199.265C196.407 65.1747 195.841 65.1195 195.841 62.5915C195.841 60.0635 196.407 60.0083 199.265 60.0083H199.79C202.703 60.0083 203.324 60.0635 203.324 62.5915C203.324 65.1195 202.703 65.1747 199.79 65.1747ZM203.365 88.3409C203.365 90.4683 203.034 91.1452 199.942 91.1452H199.32C196.007 91.1452 195.786 90.3025 195.786 88.3409V71.9575C195.786 69.7748 196.118 69.0979 199.21 69.0979H199.831C203.075 69.0979 203.365 70.0511 203.365 71.9575V88.3409Z" fill="#00263E"></path><path d="M1.79468 90.4269C0.331326 90.1368 0 89.8052 0 88.2857C0 86.3241 0.842121 86.2136 2.85769 86.4898C5.60494 86.8766 10.8233 87.5535 16.4283 87.5535C23.1514 87.5535 28.2594 87.3878 28.2594 82.8982C28.2594 79.196 25.8435 78.8092 19.0098 78.5191L16.1522 78.4086C5.61874 78.0218 0.124247 76.7233 0.124247 68.2553C0.124247 59.7873 8.86298 59.4005 17.8916 59.4005C23.7727 59.4005 30.9514 60.0774 32.3043 60.2984C33.7677 60.5194 34.099 60.92 34.099 62.4257C34.099 64.2216 33.4778 64.4979 31.9178 64.2768C29.847 64.0005 23.3999 63.3237 18.2368 63.3237C11.7345 63.3237 8.1451 63.4894 8.1451 67.4817C8.1451 71.1839 10.5058 71.3496 17.6155 71.6812L20.2523 71.7917C29.778 72.2475 36.0041 72.9659 36.0041 81.724C36.0041 89.4599 29.8884 91.5458 16.9391 91.5458C9.31855 91.5458 3.03716 90.6479 1.80849 90.4269" fill="#00263E"></path><path d="M42.603 84.3072C42.603 78.4224 48.5393 78.0771 56.6706 78.0771H64.0702C64.6915 78.0771 65.4231 77.9113 65.4231 76.7924V75.8392C65.4231 72.2475 63.3524 71.8607 57.9131 71.8607C52.4738 71.8607 48.0423 72.4824 46.9793 72.5929C45.7506 72.7587 45.2398 72.6481 45.2398 71.0733C45.2398 69.6229 45.4607 69.388 46.8689 69.167C47.7662 69.0012 53.1503 68.4349 59.3626 68.4349C63.5732 68.4349 67.3835 68.7664 69.8408 69.8853C72.4224 71.0043 72.9746 73.0211 72.9746 75.4386V87.2772C72.9746 89.1283 72.6433 90.1367 68.4879 90.8136C65.4093 91.3248 60.6465 91.601 56.8915 91.601C44.5082 91.601 42.603 89.4184 42.603 84.3072ZM63.9598 88.1199C64.7467 87.9541 65.4231 87.7331 65.4231 86.4346V82.4561C65.4231 81.503 64.8571 81.1714 64.1392 81.1714H57.1262C52.529 81.1714 50.5135 81.5582 50.5135 84.4868C50.5135 88.0232 52.032 88.631 57.637 88.631C60.3842 88.631 63.1867 88.2995 63.9736 88.1337" fill="#00263E"></path><path d="M81.1059 97.1543V72.5929C81.1059 70.7418 81.4373 69.7886 85.3165 69.167C87.7877 68.7802 91.9293 68.4349 96.3608 68.4349C109.476 68.4349 112.389 72.0265 112.389 79.9834C112.389 87.9403 109.752 91.532 96.8025 91.532C94.0553 91.532 91.8188 91.3662 90.0241 91.2004C89.2925 91.1452 88.6712 91.2557 88.6712 92.3194V97.1405C88.6712 99.3231 88.3399 100 85.2475 100H84.6263C81.4925 100 81.0921 99.3231 81.0921 97.1405M104.423 79.9834C104.423 72.7448 102.242 71.4049 96.2365 71.4049C93.2132 71.4049 90.4107 71.7917 89.7894 71.9022C89.2925 72.0127 88.6712 72.1232 88.6712 73.0764V86.8766C88.6712 87.8298 89.2925 87.9956 89.7894 88.1061C90.4107 88.2166 93.2132 88.5481 96.2365 88.5481C102.228 88.5481 104.423 87.2082 104.423 79.9696" fill="#00263E"></path><path d="M119.346 97.1543V72.5929C119.346 70.7418 119.678 69.7886 123.557 69.167C126.028 68.7802 130.17 68.4349 134.601 68.4349C147.716 68.4349 150.629 72.0265 150.629 79.9834C150.629 87.9403 147.992 91.532 135.043 91.532C132.296 91.532 130.059 91.3662 128.265 91.2004C127.533 91.1452 126.912 91.2557 126.912 92.3194V97.1405C126.912 99.3231 126.58 100 123.488 100H122.867C119.733 100 119.333 99.3231 119.333 97.1405M142.664 79.9834C142.664 72.7448 140.482 71.4049 134.477 71.4049C131.454 71.4049 128.651 71.7917 128.03 71.9022C127.519 72.0127 126.912 72.1232 126.912 73.0764V86.8766C126.912 87.8298 127.533 87.9956 128.03 88.1061C128.651 88.2166 131.454 88.5481 134.477 88.5481C140.469 88.5481 142.664 87.2082 142.664 79.9696" fill="#00263E"></path><path d="M180.103 76.5161C180.103 72.2475 177.632 71.5292 173.035 71.5292C170.564 71.5292 168.659 71.8608 166.422 72.2614C165.691 72.4271 165.139 72.7587 165.139 73.7809V88.2028C165.139 90.3302 164.807 91.007 161.715 91.007H161.094C157.96 91.007 157.559 90.3302 157.559 88.2028V62.7435C157.559 60.5608 157.891 59.884 160.983 59.884H161.604C164.738 59.884 165.139 60.5608 165.139 62.7435V67.9099C165.139 68.9736 165.705 69.2499 166.657 69.1394C169.239 68.8078 172.483 68.4625 175.175 68.4625C185.267 68.4625 187.669 71.101 187.669 76.9305V88.2028C187.669 90.3302 187.337 91.007 184.3 91.007H183.679C180.476 91.007 180.09 90.3302 180.09 88.2028V76.5299L180.103 76.5161Z" fill="#00263E"></path><path d="M215.307 90.9794C212.173 90.9794 211.773 90.3025 211.773 88.1752V73.256C211.773 71.4049 212.104 70.1202 216.259 69.4433C219.683 68.8769 225.122 68.4349 229.209 68.4349C230.603 68.4349 230.893 68.7111 230.893 70.1754C230.893 71.4601 230.783 72.0265 229.374 72.0265H228.864C226.392 72.0265 222.817 72.2475 220.456 72.7034C219.89 72.8139 219.338 73.0902 219.338 74.1124V88.189C219.338 90.3163 219.007 90.9932 215.914 90.9932H215.293L215.307 90.9794Z" fill="#00263E"></path><path d="M232.508 79.9834C232.508 72.5791 234.855 68.3658 248.426 68.3658C258.296 68.3658 264.122 70.728 264.178 78.5191C264.178 80.8123 263.846 81.5444 259.912 81.5444H241.634C240.902 81.5444 240.35 81.7102 240.35 82.7739C240.35 87.816 245.223 87.9956 251.118 87.9956C254.597 87.9956 259.249 87.4983 260.091 87.374C261.375 87.2082 261.886 87.2634 261.886 88.8244C261.886 90.2887 261.665 90.5097 260.257 90.7308C259.691 90.8413 255.494 91.4629 249.944 91.4629C236.498 91.4629 232.508 88.2581 232.508 79.9696M254.873 78.533C255.66 78.533 256.226 78.3119 256.226 77.3035C256.226 72.8692 254.21 71.3635 248.384 71.3635C242.558 71.3635 240.543 72.7725 240.543 77.3035C240.543 78.3119 241.109 78.533 241.882 78.533H254.887H254.873Z" fill="#00263E"></path></svg> 