<svg width="28" height="28" viewBox="0 0 28 28" fill="none" xmlns="http://www.w3.org/2000/svg">
	<path d="M20 0H8C3.58172 0 0 3.58172 0 8V20C0 24.4183 3.58172 28 8 28H20C24.4183 28 28 24.4183 28 20V8C28 3.58172 24.4183 0 20 0Z" fill="#E11D48"/>
	<g transform="translate(4 4) scale(0.8333)" fill="none" stroke="#fff" stroke-width="2.4" stroke-linecap="round" stroke-linejoin="round">
		<path d="M16 2v2" />
		<path d="M7 22v-2a2 2 0 0 1 2-2h6a2 2 0 0 1 2 2v2" />
		<path d="M8 2v2" />
		<circle cx="12" cy="11" r="3" />
		<rect x="3" y="4" width="18" height="18" rx="2" />
	</g>
</svg>
