<svg width="28" height="28" viewBox="0 0 28 28" fill="none" xmlns="http://www.w3.org/2000/svg">
	<path d="M20 0H8C3.58172 0 0 3.58172 0 8V20C0 24.4183 3.58172 28 8 28H20C24.4183 28 28 24.4183 28 20V8C28 3.58172 24.4183 0 20 0Z" fill="#475569"/>
	<g transform="translate(4 4) scale(0.8333)" fill="none" stroke="#fff" stroke-width="2.4" stroke-linecap="round" stroke-linejoin="round">
		<path d="M12 22v-5" />
		<path d="M9 8V2" />
		<path d="M15 8V2" />
		<path d="M18 8v5a4 4 0 0 1-4 4h-4a4 4 0 0 1-4-4V8Z" />
	</g>
</svg>
