<svg xmlns="http://www.w3.org/2000/svg" viewBox="0 0 512 512" width="512" height="512">
  <!-- Maskable variant: launchers clip to a circle/squircle, so the safe zone must be
       full-bleed and opaque. White field keeps the #00a0dd swirl readable after masking. -->
  <rect width="512" height="512" fill="#ffffff"/>
  <g transform="translate(102 129.3) scale(1.601)" fill="#00a0dd">
    <path d="M191.7,94.19c-1.27-26.47-24.25-41.35-62.64-36.44-58.53,7.49-48.33-42.61-29.39-48.55,16.78-5.26,26.29,12.99,17.64,20.19-1.72,1.43-2.65-.32-2.65-.32,0,0-.72-1.72-2.78-1.22h-.01c-1.28.32-2.07,1.56-1.74,2.78,1.1,4.05,7.32,4.04,11.04,1.73,10.42-6.46,8.79-32.36-17.9-32.36-35.65,0-52.17,42.98-31.15,71.07,16.99,22.69,15.9,52.85-11.26,60.41-39.73,11.06-52.3-33.06-23.52-44.14,13.49-5.19,24.95,5.2,19.78,15.51-.54,1.08-1.74,2.73-3.29,2.73-.8,0-1.38-.24-1.54-1.31-.55-3.8-9.74-1.74-6.46,4.11,2.46,4.38,6.86,6.28,13.33,3.48,8.94-3.86,11.4-14.59,9.31-21.63-3.31-11.11-11.45-16.38-25.1-17.42-26.28-2-56.04,32.91-37.71,64.68,18.42,31.92,89.85,31.59,105.98-33.47,10.5-42.33,60.51-34.2,62.05-9.01,1.2,19.62-15.25,21.94-19.07,13.46-.26-.99.37-2,1.4-2.24,1.65-.41,2.24.98,2.24.98,0,0,.8,1.26,2.62.42,1.03-.59,1.85-1.39,2.39-2.49.81-1.65.96-3.41.46-5.27-.9-3.36-3.07-5.89-6.51-7.57-3.44-1.69-7.14-2.05-11.05-1.1-5.11,1.23-8.56,3.89-11.17,7.47-3.23,4.44-5.3,17.71,8.27,26.36,22.55,14.38,49.5-8.29,48.41-30.85Z"/>
  </g>
</svg>
